<svg xmlns="http://www.w3.org/2000/svg" width="59" height="45" fill="none" xmlns:v="https://vecta.io/nano"><path d="M49.874 4.555A48.03 48.03 0 0 0 38.108.943a.18.18 0 0 0-.189.089c-.508.894-1.071 2.061-1.465 2.978-4.443-.658-8.863-.658-13.215 0a30.01 30.01 0 0 0-1.488-2.978c-.039-.066-.114-.1-.189-.089-4.129.704-8.079 1.936-11.766 3.612-.032.014-.059.036-.077.066C2.224 15.701.171 26.509 1.178 37.183c.005.052.034.102.075.134 4.944 3.594 9.734 5.775 14.434 7.221.075.023.155-.005.203-.066 1.112-1.503 2.103-3.087 2.953-4.754a.18.18 0 0 0-.1-.252c-1.572-.59-3.069-1.31-4.509-2.127-.114-.066-.123-.227-.018-.304a24.6 24.6 0 0 0 .896-.695.18.18 0 0 1 .187-.025c9.46 4.275 19.702 4.275 29.051 0a.18.18 0 0 1 .189.023 22.96 22.96 0 0 0 .898.697c.105.077.098.239-.016.304-1.44.833-2.937 1.537-4.511 2.125-.102.039-.148.157-.098.254.868 1.664 1.859 3.249 2.951 4.751.046.064.127.091.203.068 4.723-1.446 9.513-3.628 14.457-7.221.043-.032.071-.08.075-.132 1.205-12.34-2.019-23.06-8.547-32.563-.016-.032-.043-.054-.075-.068zM20.256 30.684c-2.848 0-5.195-2.588-5.195-5.766s2.301-5.766 5.195-5.766c2.916 0 5.241 2.611 5.195 5.766 0 3.178-2.301 5.766-5.195 5.766zm19.208 0c-2.848 0-5.195-2.588-5.195-5.766s2.301-5.766 5.195-5.766c2.916 0 5.24 2.611 5.195 5.766 0 3.178-2.279 5.766-5.195 5.766z" fill="#fff"/></svg>