<svg xmlns="http://www.w3.org/2000/svg" width="44" height="44" fill="none" xmlns:v="https://vecta.io/nano"><path d="M22.252 4.799l8.653.125c2.088.095 3.222.444 3.977.737 1 .388 1.713.853 2.462 1.602a6.63 6.63 0 0 1 1.602 2.462c.293.755.642 1.889.737 3.976l.125 8.654-.125 8.653c-.095 2.088-.444 3.222-.737 3.977a6.63 6.63 0 0 1-1.602 2.462c-.749.749-1.463 1.213-2.462 1.602-.755.293-1.889.642-3.977.737l-8.653.125c-5.719 0-6.396-.022-8.654-.125-2.088-.095-3.222-.444-3.976-.737-1-.388-1.713-.853-2.462-1.602a6.63 6.63 0 0 1-1.602-2.462c-.293-.755-.642-1.889-.737-3.977l-.125-8.654.125-8.654c.095-2.088.444-3.222.737-3.977.388-1 .853-1.713 1.602-2.462s1.463-1.213 2.462-1.602c.755-.293 1.888-.642 3.976-.737l8.654-.125zm0-3.859l-8.829.129c-2.28.104-3.836.466-5.198.995-1.408.547-2.603 1.28-3.793 2.47s-1.923 2.385-2.47 3.793c-.529 1.362-.891 2.919-.995 5.198l-.129 8.829.129 8.829c.104 2.28.466 3.836.995 5.198.547 1.408 1.28 2.602 2.47 3.793s2.385 1.923 3.793 2.47c1.362.529 2.919.891 5.198.995l8.829.129 8.829-.129c2.279-.104 3.836-.466 5.198-.995 1.408-.547 2.602-1.28 3.793-2.47s1.923-2.385 2.47-3.793c.529-1.362.891-2.919.995-5.198l.129-8.829-.129-8.829c-.104-2.28-.466-3.836-.995-5.198-.547-1.408-1.28-2.602-2.47-3.793s-2.385-1.923-3.793-2.47c-1.362-.529-2.919-.891-5.198-.995L22.252.94zm0 10.418a11 11 0 0 0-10.997 10.997 11 11 0 0 0 10.997 10.997 11 11 0 0 0 10.997-10.997 11 11 0 0 0-10.997-10.997zm0 18.135a7.14 7.14 0 0 1-7.138-7.138 7.14 7.14 0 0 1 7.138-7.138 7.14 7.14 0 0 1 7.138 7.138 7.14 7.14 0 0 1-7.138 7.138zm14.001-18.57a2.57 2.57 0 0 1-2.57 2.57 2.57 2.57 0 0 1-2.57-2.57 2.57 2.57 0 0 1 2.57-2.57 2.57 2.57 0 0 1 2.57 2.57z" fill="#fff"/></svg>