<svg xmlns="http://www.w3.org/2000/svg" width="44" height="44" fill="none" xmlns:v="https://vecta.io/nano"><path d="M43.954 21.642c0 11.946-9.657 21.642-21.556 21.642S.842 33.588.842 21.642 10.499 0 22.398 0s21.556 9.696 21.556 21.642z" fill="#fff"/><path d="M11.491 22.378l.086-.13 5.604-8.787c.086-.13.259-.13.345.043.948 2.121 1.724 4.718 1.38 6.363-.172.692-.604 1.601-1.121 2.424-.043.13-.129.26-.215.346-.043.043-.086.087-.172.087h-5.777c-.129-.043-.216-.216-.129-.346zm24.962 1.645v1.385c0 .087-.043.13-.129.173-.431.173-1.94.866-2.544 1.731-1.595 2.207-2.802 5.367-5.475 5.367H17.053c-3.966 0-7.2-3.246-7.2-7.272v-.13c0-.087.086-.173.172-.173h6.337c.129 0 .216.13.216.216-.043.389.043.822.216 1.212a2.19 2.19 0 0 0 1.983 1.212h3.104V25.32H18.82c-.172 0-.259-.173-.172-.303a.6.6 0 0 0 .129-.173c.302-.433.69-1.039 1.121-1.775.302-.476.56-1.039.776-1.558a2.11 2.11 0 0 0 .129-.303c.043-.173.129-.346.172-.476l.129-.389c.086-.433.129-.909.129-1.428a3.08 3.08 0 0 0-.043-.606c0-.216-.043-.433-.043-.649 0-.173-.043-.39-.086-.563-.043-.303-.086-.563-.172-.866l-.043-.087c-.043-.173-.086-.39-.172-.563a16.2 16.2 0 0 0-.604-1.731l-.259-.649a17.06 17.06 0 0 0-.388-.866c-.043-.13-.129-.216-.172-.346s-.129-.26-.172-.39l-.129-.26-.388-.692c-.043-.087.043-.216.129-.173l2.371.649.302.087.345.086.129.043V9.912c0-.693.56-1.255 1.207-1.255a1.2 1.2 0 0 1 .862.346 1.21 1.21 0 0 1 .345.866v2.078l.259.087s.043 0 .043.043c.043.043.129.13.259.216.086.087.172.173.302.26.216.173.517.433.819.693.086.086.173.13.216.216a17.1 17.1 0 0 1 1.25 1.255c.129.13.216.26.345.39s.216.303.345.433l.431.563c.043.087.129.173.172.303.172.26.302.519.474.779.043.13.129.26.173.389.172.346.302.693.345 1.082.043.087.043.173.043.216.043.087.043.216.043.346.043.39 0 .736-.043 1.125-.043.173-.086.303-.129.476-.043.13-.086.303-.172.476-.129.303-.302.606-.474.909-.043.087-.129.216-.216.346s-.172.216-.216.346c-.086.13-.215.26-.302.389s-.172.26-.302.39c-.129.173-.302.346-.431.519-.086.087-.173.216-.302.303-.086.087-.173.216-.302.303-.129.13-.259.26-.388.346l-.259.216c-.043.043-.086.043-.129.043h-1.897v2.424h2.371c.517 0 1.035-.173 1.423-.519.129-.13.733-.649 1.466-1.428.043-.043.043-.043.086-.043l6.553-1.905c.259-.13.345-.043.345.087z" fill="#232c56"/></svg>