<svg xmlns="http://www.w3.org/2000/svg" width="51" height="43" fill="none" xmlns:v="https://vecta.io/nano"><path d="M50.92 5.875a20.77 20.77 0 0 1-6 1.657c2.157-1.303 3.813-3.365 4.593-5.822a20.83 20.83 0 0 1-6.634 2.554C40.974 2.218 38.259.94 35.254.94c-5.77 0-10.447 4.712-10.447 10.524 0 .825.093 1.628.271 2.398-8.683-.439-16.38-4.629-21.533-10.996C2.646 4.421 2.13 6.228 2.13 8.157a10.54 10.54 0 0 0 4.648 8.76c-1.713-.055-3.323-.528-4.732-1.316l-.001.132c0 5.099 3.601 9.353 8.38 10.319a10.39 10.39 0 0 1-2.752.369 10.36 10.36 0 0 1-1.965-.189c1.329 4.181 5.187 7.224 9.759 7.309-3.575 2.822-8.08 4.505-12.974 4.505-.843 0-1.675-.05-2.492-.147 4.623 2.986 10.115 4.728 16.014 4.728 19.216 0 29.723-16.036 29.723-29.943a30.59 30.59 0 0 0-.03-1.361 21.32 21.32 0 0 0 5.213-5.448z" fill="#fff"/></svg>